<mxfile host="app.diagrams.net" agent="Mozilla/5.0 (Windows NT 10.0; Win64; x64; rv:139.0) Gecko/20100101 Firefox/139.0" version="27.1.4">
  <diagram name="Page-1" id="l3bGhbCo_Gh9KPEjaRP2">
    <mxGraphModel dx="2030" dy="963" grid="0" gridSize="10" guides="1" tooltips="1" connect="1" arrows="1" fold="1" page="0" pageScale="1" pageWidth="850" pageHeight="1100" math="0" shadow="0">
      <root>
        <mxCell id="0" />
        <mxCell id="1" parent="0" />
        <mxCell id="DtqugrUNsvd0I3AtQNDU-12" style="edgeStyle=orthogonalEdgeStyle;rounded=0;orthogonalLoop=1;jettySize=auto;html=1;exitX=0.5;exitY=1;exitDx=0;exitDy=0;entryX=0.5;entryY=0;entryDx=0;entryDy=0;" edge="1" parent="1" source="DtqugrUNsvd0I3AtQNDU-1" target="DtqugrUNsvd0I3AtQNDU-2">
          <mxGeometry relative="1" as="geometry" />
        </mxCell>
        <mxCell id="DtqugrUNsvd0I3AtQNDU-1" value="&lt;div&gt;Start&lt;/div&gt;" style="ellipse;whiteSpace=wrap;html=1;" vertex="1" parent="1">
          <mxGeometry x="-427.5" y="-390" width="87" height="57" as="geometry" />
        </mxCell>
        <mxCell id="DtqugrUNsvd0I3AtQNDU-13" style="edgeStyle=orthogonalEdgeStyle;rounded=0;orthogonalLoop=1;jettySize=auto;html=1;exitX=0.5;exitY=1;exitDx=0;exitDy=0;" edge="1" parent="1" source="DtqugrUNsvd0I3AtQNDU-2" target="DtqugrUNsvd0I3AtQNDU-3">
          <mxGeometry relative="1" as="geometry" />
        </mxCell>
        <mxCell id="DtqugrUNsvd0I3AtQNDU-2" value="Input: Array of size N" style="shape=parallelogram;perimeter=parallelogramPerimeter;whiteSpace=wrap;html=1;fixedSize=1;" vertex="1" parent="1">
          <mxGeometry x="-461.5" y="-313" width="159" height="54" as="geometry" />
        </mxCell>
        <mxCell id="DtqugrUNsvd0I3AtQNDU-14" style="edgeStyle=orthogonalEdgeStyle;rounded=0;orthogonalLoop=1;jettySize=auto;html=1;exitX=0.5;exitY=1;exitDx=0;exitDy=0;" edge="1" parent="1" source="DtqugrUNsvd0I3AtQNDU-3" target="DtqugrUNsvd0I3AtQNDU-4">
          <mxGeometry relative="1" as="geometry" />
        </mxCell>
        <mxCell id="DtqugrUNsvd0I3AtQNDU-3" value="Copy array to arrayShuffled" style="rounded=0;whiteSpace=wrap;html=1;" vertex="1" parent="1">
          <mxGeometry x="-442" y="-237" width="120" height="60" as="geometry" />
        </mxCell>
        <mxCell id="DtqugrUNsvd0I3AtQNDU-15" style="edgeStyle=orthogonalEdgeStyle;rounded=0;orthogonalLoop=1;jettySize=auto;html=1;exitX=0.5;exitY=1;exitDx=0;exitDy=0;entryX=0.5;entryY=0;entryDx=0;entryDy=0;" edge="1" parent="1" source="DtqugrUNsvd0I3AtQNDU-4" target="DtqugrUNsvd0I3AtQNDU-5">
          <mxGeometry relative="1" as="geometry" />
        </mxCell>
        <mxCell id="DtqugrUNsvd0I3AtQNDU-4" value="Set i = n - 1" style="rounded=0;whiteSpace=wrap;html=1;" vertex="1" parent="1">
          <mxGeometry x="-442" y="-154" width="120" height="60" as="geometry" />
        </mxCell>
        <mxCell id="DtqugrUNsvd0I3AtQNDU-16" style="edgeStyle=orthogonalEdgeStyle;rounded=0;orthogonalLoop=1;jettySize=auto;html=1;exitX=0;exitY=1;exitDx=0;exitDy=0;entryX=0.5;entryY=0;entryDx=0;entryDy=0;" edge="1" parent="1" source="DtqugrUNsvd0I3AtQNDU-5" target="DtqugrUNsvd0I3AtQNDU-6">
          <mxGeometry relative="1" as="geometry">
            <Array as="points">
              <mxPoint x="-404" y="6" />
              <mxPoint x="-483" y="6" />
            </Array>
          </mxGeometry>
        </mxCell>
        <mxCell id="DtqugrUNsvd0I3AtQNDU-17" style="edgeStyle=orthogonalEdgeStyle;rounded=0;orthogonalLoop=1;jettySize=auto;html=1;exitX=1;exitY=1;exitDx=0;exitDy=0;entryX=0.5;entryY=0;entryDx=0;entryDy=0;" edge="1" parent="1" source="DtqugrUNsvd0I3AtQNDU-5" target="DtqugrUNsvd0I3AtQNDU-7">
          <mxGeometry relative="1" as="geometry">
            <Array as="points">
              <mxPoint x="-364" y="6" />
              <mxPoint x="-303" y="6" />
            </Array>
          </mxGeometry>
        </mxCell>
        <mxCell id="DtqugrUNsvd0I3AtQNDU-5" value="&amp;nbsp;Is i &amp;gt; 0?" style="rhombus;whiteSpace=wrap;html=1;" vertex="1" parent="1">
          <mxGeometry x="-424" y="-75" width="80" height="80" as="geometry" />
        </mxCell>
        <mxCell id="DtqugrUNsvd0I3AtQNDU-18" style="edgeStyle=orthogonalEdgeStyle;rounded=0;orthogonalLoop=1;jettySize=auto;html=1;exitX=0.5;exitY=1;exitDx=0;exitDy=0;entryX=0.5;entryY=0;entryDx=0;entryDy=0;" edge="1" parent="1" source="DtqugrUNsvd0I3AtQNDU-6" target="DtqugrUNsvd0I3AtQNDU-10">
          <mxGeometry relative="1" as="geometry" />
        </mxCell>
        <mxCell id="DtqugrUNsvd0I3AtQNDU-6" value="Return arrayShuffled" style="shape=parallelogram;perimeter=parallelogramPerimeter;whiteSpace=wrap;html=1;fixedSize=1;" vertex="1" parent="1">
          <mxGeometry x="-562" y="26" width="157" height="60" as="geometry" />
        </mxCell>
        <mxCell id="DtqugrUNsvd0I3AtQNDU-11" style="edgeStyle=orthogonalEdgeStyle;rounded=0;orthogonalLoop=1;jettySize=auto;html=1;exitX=0.75;exitY=1;exitDx=0;exitDy=0;entryX=0;entryY=0.5;entryDx=0;entryDy=0;" edge="1" parent="1" source="DtqugrUNsvd0I3AtQNDU-7" target="DtqugrUNsvd0I3AtQNDU-8">
          <mxGeometry relative="1" as="geometry" />
        </mxCell>
        <mxCell id="DtqugrUNsvd0I3AtQNDU-7" value="Generate random j in [0, i]" style="rounded=0;whiteSpace=wrap;html=1;" vertex="1" parent="1">
          <mxGeometry x="-363" y="26" width="120" height="60" as="geometry" />
        </mxCell>
        <mxCell id="DtqugrUNsvd0I3AtQNDU-19" style="edgeStyle=orthogonalEdgeStyle;rounded=0;orthogonalLoop=1;jettySize=auto;html=1;exitX=0.5;exitY=1;exitDx=0;exitDy=0;entryX=0.5;entryY=0;entryDx=0;entryDy=0;" edge="1" parent="1" source="DtqugrUNsvd0I3AtQNDU-8" target="DtqugrUNsvd0I3AtQNDU-9">
          <mxGeometry relative="1" as="geometry" />
        </mxCell>
        <mxCell id="DtqugrUNsvd0I3AtQNDU-8" value="Swap elements i and j" style="rounded=0;whiteSpace=wrap;html=1;" vertex="1" parent="1">
          <mxGeometry x="-88" y="-384" width="136" height="60" as="geometry" />
        </mxCell>
        <mxCell id="DtqugrUNsvd0I3AtQNDU-21" style="edgeStyle=orthogonalEdgeStyle;rounded=0;orthogonalLoop=1;jettySize=auto;html=1;exitX=0.5;exitY=1;exitDx=0;exitDy=0;entryX=1;entryY=0.5;entryDx=0;entryDy=0;" edge="1" parent="1" source="DtqugrUNsvd0I3AtQNDU-9" target="DtqugrUNsvd0I3AtQNDU-5">
          <mxGeometry relative="1" as="geometry" />
        </mxCell>
        <mxCell id="DtqugrUNsvd0I3AtQNDU-9" value="i = i - 1" style="rounded=0;whiteSpace=wrap;html=1;" vertex="1" parent="1">
          <mxGeometry x="-80" y="-302" width="120" height="60" as="geometry" />
        </mxCell>
        <mxCell id="DtqugrUNsvd0I3AtQNDU-10" value="End" style="ellipse;whiteSpace=wrap;html=1;" vertex="1" parent="1">
          <mxGeometry x="-539" y="115" width="97" height="55" as="geometry" />
        </mxCell>
      </root>
    </mxGraphModel>
  </diagram>
</mxfile>
